<svg version="1.2" xmlns="http://www.w3.org/2000/svg" viewBox="0 0 13 16" width="13" height="16"><style>.a{fill:#fff}.b{fill:#2fe3c1}</style><path fill-rule="evenodd" class="a" d="m2.3 6.9c0-0.6 0.2-1.1 0.6-1.5l3.4-3.5c1.4-1.3 3.6-1.3 5 0 1.4 1.4 1.4 3.7 0 5l-3.4 3.5c-0.4 0.4-0.9 0.6-1.5 0.6l-3.5 0.1-1.2 1.2c-0.2 0.2-0.5 0.2-0.8 0-0.2-0.2-0.2-0.5 0-0.7l1.3-1.3zm5.9-2.5c0.2-0.2 0.6-0.2 0.8 0 0.2 0.2 0.2 0.5 0 0.7l-2.3 2.3h2.6q0 0 0.1 0l1.1-1.2c1-0.9 1-2.4 0-3.4-0.9-1-2.4-1-3.4 0l-3.4 3.4q-0.3 0.4-0.4 0.8v2.3zm-4.2 5.7h2.3q0.4-0.1 0.7-0.4l1.3-1.2h-2.7z"/><path fill-rule="evenodd" class="b" d="m2.3 6.9c0-0.6 0.2-1.1 0.6-1.5l3.4-3.5c1.4-1.3 3.6-1.3 5 0 1.4 1.4 1.4 3.7 0 5l-3.4 3.5c-0.4 0.4-0.9 0.6-1.5 0.6l-3.5 0.1-1.2 1.2c-0.2 0.2-0.5 0.2-0.8 0-0.2-0.2-0.2-0.5 0-0.7l1.3-1.3zm5.9-2.5c0.2-0.2 0.6-0.2 0.8 0 0.2 0.2 0.2 0.5 0 0.7l-2.3 2.3h2.6q0 0 0.1 0l1.1-1.2c1-0.9 1-2.4 0-3.4-0.9-1-2.4-1-3.4 0l-3.4 3.4q-0.3 0.4-0.4 0.8v2.3zm-4.2 5.7h2.3q0.4-0.1 0.7-0.4l1.3-1.2h-2.7z"/></svg>